%TF.GenerationSoftware,KiCad,Pcbnew,9.0.3*%
%TF.CreationDate,2026-08-20T20:18:18+04:00*%
%TF.ProjectId,IOT,494f542e-6b69-4636-9164-5f7063625858,rev?*%
%TF.SameCoordinates,Original*%
%TF.FileFunction,Soldermask,Bot*%
%TF.FilePolarity,Negative*%
%FSLAX46Y46*%
G04 Gerber Fmt 4.6, Leading zero omitted, Abs format (unit mm)*
G04 Created by KiCad (PCBNEW 9.0.3) date 2026-08-20 20:18:18*
%MOMM*%
%LPD*%
G01*
G04 APERTURE LIST*
G04 Aperture macros list*
%AMRoundRect*
0 Rectangle with rounded corners*
0 $1 Rounding radius*
0 $2 $3 $4 $5 $6 $7 $8 $9 X,Y pos of 4 corners*
0 Add a 4 corners polygon primitive as box body*
4,1,4,$2,$3,$4,$5,$6,$7,$8,$9,$2,$3,0*
0 Add four circle primitives for the rounded corners*
1,1,$1+$1,$2,$3*
1,1,$1+$1,$4,$5*
1,1,$1+$1,$6,$7*
1,1,$1+$1,$8,$9*
0 Add four rect primitives between the rounded corners*
20,1,$1+$1,$2,$3,$4,$5,0*
20,1,$1+$1,$4,$5,$6,$7,0*
20,1,$1+$1,$6,$7,$8,$9,0*
20,1,$1+$1,$8,$9,$2,$3,0*%
G04 Aperture macros list end*
%ADD10C,0.800000*%
%ADD11C,6.400000*%
%ADD12C,2.454000*%
%ADD13C,2.600000*%
%ADD14RoundRect,0.250000X1.050000X-1.050000X1.050000X1.050000X-1.050000X1.050000X-1.050000X-1.050000X0*%
%ADD15RoundRect,0.250000X-1.050000X1.050000X-1.050000X-1.050000X1.050000X-1.050000X1.050000X1.050000X0*%
%ADD16C,2.000000*%
%ADD17RoundRect,0.250000X-0.750000X0.750000X-0.750000X-0.750000X0.750000X-0.750000X0.750000X0.750000X0*%
%ADD18O,3.000000X2.000000*%
%ADD19R,3.000000X2.000000*%
%ADD20O,2.000000X3.000000*%
%ADD21O,1.600000X1.000000*%
%ADD22O,2.100000X1.000000*%
%ADD23C,0.650000*%
%ADD24C,1.600000*%
%ADD25RoundRect,0.250000X-0.550000X-0.550000X0.550000X-0.550000X0.550000X0.550000X-0.550000X0.550000X0*%
%ADD26C,1.700000*%
%ADD27R,1.700000X1.700000*%
G04 APERTURE END LIST*
D10*
%TO.C,H3*%
X207770000Y-57570000D03*
X207067056Y-59267056D03*
X207067056Y-55872944D03*
X205370000Y-59970000D03*
D11*
X205370000Y-57570000D03*
D10*
X205370000Y-55170000D03*
X203672944Y-59267056D03*
X203672944Y-55872944D03*
X202970000Y-57570000D03*
%TD*%
D12*
%TO.C,F1*%
X187370000Y-104995393D03*
X187370000Y-119995393D03*
D13*
X187370000Y-112495393D03*
X187370000Y-112495393D03*
%TD*%
D10*
%TO.C,H1*%
X125770000Y-135570000D03*
X125067056Y-137267056D03*
X125067056Y-133872944D03*
X123370000Y-137970000D03*
D11*
X123370000Y-135570000D03*
D10*
X123370000Y-133170000D03*
X121672944Y-137267056D03*
X121672944Y-133872944D03*
X120970000Y-135570000D03*
%TD*%
D13*
%TO.C,J5*%
X204847799Y-121092065D03*
D14*
X204847799Y-126092065D03*
%TD*%
D13*
%TO.C,J4*%
X204894959Y-66711888D03*
X204894959Y-71711888D03*
X204894959Y-76711888D03*
X204894959Y-81711888D03*
X204894959Y-86711888D03*
X204894959Y-91711888D03*
X204894959Y-96711888D03*
D14*
X204894959Y-101711888D03*
%TD*%
D10*
%TO.C,H2*%
X207770000Y-135570000D03*
X207067056Y-137267056D03*
X207067056Y-133872944D03*
X205370000Y-137970000D03*
D11*
X205370000Y-135570000D03*
D10*
X205370000Y-133170000D03*
X203672944Y-137267056D03*
X203672944Y-133872944D03*
X202970000Y-135570000D03*
%TD*%
D13*
%TO.C,J3*%
X124500000Y-119740000D03*
X124500000Y-114660000D03*
D15*
X124500000Y-109580000D03*
%TD*%
D10*
%TO.C,H4*%
X125770000Y-57570000D03*
X125067056Y-59267056D03*
X125067056Y-55872944D03*
X123370000Y-59970000D03*
D11*
X123370000Y-57570000D03*
D10*
X123370000Y-55170000D03*
X121672944Y-59267056D03*
X121672944Y-55872944D03*
X120970000Y-57570000D03*
%TD*%
D16*
%TO.C,C1*%
X187632480Y-134551209D03*
D17*
X187632480Y-129551209D03*
%TD*%
D18*
%TO.C,K1*%
X161500602Y-131315301D03*
D19*
X161500602Y-123815301D03*
D20*
X136160602Y-123815301D03*
X136160602Y-131315301D03*
X146240602Y-123815301D03*
X146240602Y-131315301D03*
X141200602Y-123815301D03*
X141200602Y-131315301D03*
%TD*%
D21*
%TO.C,J1*%
X121720000Y-98790000D03*
D22*
X125900000Y-98790000D03*
D21*
X121720000Y-90150000D03*
D22*
X125900000Y-90150000D03*
D23*
X125370000Y-97360000D03*
X125370000Y-91580000D03*
%TD*%
D24*
%TO.C,U5*%
X187990000Y-65790000D03*
X187990000Y-68330000D03*
X187990000Y-70870000D03*
X187990000Y-73410000D03*
X187990000Y-75950000D03*
X187990000Y-78490000D03*
X187990000Y-81030000D03*
X187990000Y-83570000D03*
X187990000Y-86110000D03*
X187990000Y-88650000D03*
X180370000Y-88650000D03*
X180370000Y-86110000D03*
X180370000Y-83570000D03*
X180370000Y-81030000D03*
X180370000Y-78490000D03*
X180370000Y-75950000D03*
X180370000Y-73410000D03*
X180370000Y-70870000D03*
X180370000Y-68330000D03*
D25*
X180370000Y-65790000D03*
%TD*%
D26*
%TO.C,J6*%
X165265000Y-98810000D03*
X162725000Y-98810000D03*
X165265000Y-96270000D03*
X162725000Y-96270000D03*
X165265000Y-93730000D03*
X162725000Y-93730000D03*
X165265000Y-91190000D03*
D27*
X162725000Y-91190000D03*
%TD*%
M02*
