M48
; DRILL file {KiCad 9.0.3} date 2026-08-20T20:18:26+0400
; FORMAT={-:-/ absolute / metric / decimal}
; #@! TF.CreationDate,2026-08-20T20:18:26+04:00
; #@! TF.GenerationSoftware,Kicad,Pcbnew,9.0.3
; #@! TF.FileFunction,Plated,1,4,PTH
FMAT,2
METRIC
; #@! TA.AperFunction,Plated,PTH,ComponentDrill
T1C0.200
; #@! TA.AperFunction,Plated,PTH,ViaDrill
T2C0.300
; #@! TA.AperFunction,Plated,PTH,ComponentDrill
T3C0.500
; #@! TA.AperFunction,Plated,PTH,ComponentDrill
T4C0.600
; #@! TA.AperFunction,Plated,PTH,ComponentDrill
T5C0.800
; #@! TA.AperFunction,Plated,PTH,ComponentDrill
T6C1.000
; #@! TA.AperFunction,Plated,PTH,ComponentDrill
T7C1.300
; #@! TA.AperFunction,Plated,PTH,ComponentDrill
T8C1.500
; #@! TA.AperFunction,Plated,PTH,ComponentDrill
T9C3.200
%
G90
G05
T1
X162.57Y-67.27
X162.57Y-68.67
X163.27Y-66.57
X163.27Y-67.97
X163.27Y-69.37
X163.945Y-67.27
X163.945Y-68.67
X164.67Y-66.57
X164.67Y-67.97
X164.67Y-69.37
X165.37Y-67.27
X165.37Y-68.67
T2
X119.365Y-82.885
X120.8Y-103.98
X121.0Y-63.0
X121.0Y-64.0
X121.0Y-65.0
X121.0Y-67.0
X121.0Y-68.0
X121.0Y-69.0
X121.31Y-88.13
X121.67Y-100.14
X124.0Y-63.0
X124.0Y-64.0
X124.0Y-65.0
X124.0Y-67.0
X124.0Y-68.0
X124.0Y-69.0
X125.34Y-72.58
X125.965Y-73.88
X126.27Y-100.16
X126.93Y-60.95
X128.59Y-61.79
X128.61Y-92.01
X128.74Y-68.34
X130.072Y-98.203
X130.11Y-89.96
X130.15Y-73.57
X130.95Y-86.57
X131.0Y-83.0
X131.0Y-84.0
X131.0Y-85.0
X131.28Y-62.01
X131.31Y-93.953
X132.0Y-54.0
X132.0Y-55.0
X132.0Y-56.0
X132.0Y-57.0
X132.0Y-58.0
X132.0Y-59.0
X132.67Y-66.29
X132.79Y-100.3
X132.8Y-60.79
X133.383Y-93.957
X133.88Y-64.39
X134.0Y-83.0
X134.0Y-84.0
X134.0Y-85.0
X134.47Y-99.63
X134.818Y-92.44
X134.94Y-62.97
X135.0Y-54.0
X135.0Y-55.0
X135.0Y-56.0
X135.0Y-57.0
X135.0Y-58.0
X135.0Y-59.0
X135.56Y-95.22
X135.96Y-69.38
X135.99Y-73.27
X136.0Y-75.0
X136.0Y-76.0
X136.0Y-77.0
X137.85Y-82.69
X137.85Y-84.91
X138.0Y-54.0
X138.0Y-55.0
X138.0Y-56.0
X138.0Y-57.0
X138.0Y-58.0
X138.0Y-59.0
X138.135Y-97.879
X138.14Y-102.67
X138.484Y-90.964
X139.0Y-67.0
X139.0Y-68.0
X139.0Y-75.0
X139.0Y-76.0
X139.0Y-77.0
X139.44Y-90.93
X140.3Y-102.68
X140.83Y-53.38
X140.83Y-55.516
X140.84Y-54.448
X140.84Y-56.584
X140.84Y-57.652
X140.84Y-58.72
X141.135Y-80.61
X141.145Y-87.115
X141.31Y-59.57
X142.0Y-67.0
X142.0Y-68.0
X142.609Y-59.57
X142.85Y-100.95
X143.33Y-99.78
X143.67Y-98.07
X143.907Y-59.57
X143.986Y-78.72
X145.0Y-70.5
X145.07Y-67.23
X145.206Y-59.57
X145.66Y-94.57
X146.505Y-59.57
X147.23Y-82.651
X147.804Y-59.57
X148.93Y-104.08
X149.0Y-95.0
X149.0Y-96.0
X149.0Y-97.0
X149.102Y-59.57
X150.401Y-59.57
X150.55Y-60.62
X151.301Y-82.651
X151.47Y-63.04
X151.5Y-70.25
X151.7Y-59.56
X151.74Y-67.09
X151.78Y-108.16
X151.99Y-64.99
X152.0Y-95.0
X152.0Y-96.0
X152.0Y-97.0
X152.03Y-116.94
X152.18Y-138.31
X153.42Y-72.0
X153.57Y-90.28
X154.9Y-59.58
X155.0Y-114.0
X155.0Y-115.0
X155.0Y-116.0
X155.0Y-117.0
X155.0Y-118.0
X155.0Y-119.0
X156.91Y-80.81
X156.98Y-81.85
X157.05Y-83.16
X158.0Y-114.0
X158.0Y-115.0
X158.0Y-116.0
X158.0Y-117.0
X158.0Y-118.0
X158.0Y-119.0
X158.21Y-82.53
X158.26Y-59.36
X158.775Y-84.445
X158.81Y-72.21
X159.482Y-59.36
X159.56Y-84.72
X159.83Y-70.81
X160.25Y-61.75
X160.52Y-62.8
X160.66Y-75.32
X160.703Y-59.33
X160.814Y-85.316
X161.29Y-119.85
X161.48Y-85.76
X161.55Y-67.96
X161.66Y-74.77
X161.925Y-59.33
X162.2Y-70.54
X162.69Y-88.23
X162.74Y-79.53
X162.94Y-72.25
X163.147Y-59.33
X163.75Y-102.5
X163.98Y-65.55
X164.33Y-82.53
X164.368Y-59.34
X164.37Y-71.18
X165.21Y-85.12
X165.59Y-59.34
X165.88Y-84.683
X166.0Y-89.0
X166.4Y-67.97
X166.588Y-84.31
X166.812Y-59.34
X166.92Y-123.27
X168.033Y-59.34
X168.15Y-79.47
X169.255Y-59.31
X169.66Y-84.36
X169.69Y-83.22
X170.0Y-100.0
X170.0Y-101.0
X170.0Y-103.0
X170.0Y-104.0
X170.0Y-106.0
X170.0Y-107.0
X170.0Y-109.0
X170.0Y-110.0
X170.0Y-112.0
X170.0Y-113.0
X170.21Y-87.63
X170.477Y-59.31
X171.61Y-67.95
X171.698Y-59.3
X172.26Y-68.61
X172.79Y-74.32
X172.92Y-59.3
X172.92Y-73.08
X173.0Y-100.0
X173.0Y-101.0
X173.0Y-103.0
X173.0Y-104.0
X173.0Y-106.0
X173.0Y-107.0
X173.0Y-109.0
X173.0Y-110.0
X173.0Y-112.0
X173.0Y-113.0
X175.0Y-90.0
X175.0Y-91.0
X175.0Y-93.0
X175.0Y-94.0
X175.0Y-95.0
X175.0Y-96.0
X175.0Y-97.0
X175.0Y-98.0
X175.6Y-59.65
X176.0Y-100.0
X176.0Y-101.0
X176.0Y-103.0
X176.0Y-104.0
X176.0Y-106.0
X176.0Y-107.0
X176.0Y-109.0
X176.0Y-110.0
X176.0Y-112.0
X176.0Y-113.0
X176.0Y-116.0
X176.0Y-117.0
X176.0Y-119.0
X176.0Y-120.0
X176.0Y-122.0
X176.0Y-123.0
X176.0Y-126.0
X176.0Y-127.0
X176.0Y-128.0
X176.833Y-59.67
X178.0Y-90.0
X178.0Y-91.0
X178.0Y-93.0
X178.0Y-94.0
X178.0Y-95.0
X178.0Y-96.0
X178.0Y-97.0
X178.0Y-98.0
X178.065Y-59.66
X178.22Y-75.95
X178.61Y-65.79
X178.64Y-69.05
X178.64Y-71.153
X178.91Y-81.04
X178.93Y-78.57
X178.94Y-86.16
X178.95Y-88.67
X179.0Y-100.0
X179.0Y-101.0
X179.0Y-103.0
X179.0Y-104.0
X179.0Y-106.0
X179.0Y-107.0
X179.0Y-109.0
X179.0Y-110.0
X179.0Y-112.0
X179.0Y-113.0
X179.0Y-116.0
X179.0Y-117.0
X179.0Y-119.0
X179.0Y-120.0
X179.0Y-122.0
X179.0Y-123.0
X179.0Y-126.0
X179.0Y-127.0
X179.0Y-128.0
X179.01Y-83.56
X179.298Y-59.67
X180.531Y-59.68
X181.0Y-93.0
X181.0Y-94.0
X181.0Y-95.0
X181.0Y-96.0
X181.0Y-97.0
X181.0Y-98.0
X181.764Y-59.68
X182.996Y-59.68
X183.0Y-93.0
X183.0Y-94.0
X183.0Y-95.0
X183.0Y-96.0
X183.0Y-97.0
X183.0Y-98.0
X184.229Y-59.67
X185.462Y-59.68
X185.54Y-138.0
X186.0Y-93.0
X186.0Y-94.0
X186.0Y-95.0
X186.0Y-96.0
X186.0Y-97.0
X186.0Y-98.0
X186.695Y-59.68
X187.927Y-59.69
X189.0Y-93.0
X189.0Y-94.0
X189.0Y-95.0
X189.0Y-96.0
X189.0Y-97.0
X189.0Y-98.0
X189.16Y-59.66
X189.43Y-68.32
X190.09Y-53.45
X190.09Y-54.536
X190.09Y-55.622
X190.09Y-56.708
X190.09Y-57.794
X190.09Y-58.88
X190.23Y-67.82
X192.0Y-89.0
X192.0Y-90.0
X192.0Y-93.0
X192.0Y-94.0
X192.0Y-95.0
X192.0Y-96.0
X192.0Y-97.0
X192.0Y-98.0
X193.0Y-54.25
X193.0Y-55.25
X193.0Y-56.25
X193.0Y-57.25
X193.0Y-58.25
X193.0Y-59.25
X195.0Y-89.0
X195.0Y-90.0
X196.0Y-54.25
X196.0Y-55.25
X196.0Y-56.25
X196.0Y-57.25
X196.0Y-58.25
X196.0Y-59.25
X196.0Y-108.0
X196.0Y-109.0
X196.0Y-111.0
X196.0Y-112.0
X196.0Y-114.0
X196.0Y-115.0
X199.0Y-54.25
X199.0Y-55.25
X199.0Y-56.25
X199.0Y-57.25
X199.0Y-58.25
X199.0Y-59.25
X199.0Y-108.0
X199.0Y-109.0
X199.0Y-111.0
X199.0Y-112.0
X199.0Y-114.0
X199.0Y-115.0
X202.0Y-108.0
X202.0Y-109.0
X202.0Y-111.0
X202.0Y-112.0
X202.0Y-114.0
X202.0Y-115.0
X202.85Y-116.29
X204.01Y-62.61
T3
X120.97Y-57.57
X120.97Y-135.57
X121.673Y-55.873
X121.673Y-59.267
X121.673Y-133.873
X121.673Y-137.267
X123.37Y-55.17
X123.37Y-59.97
X123.37Y-133.17
X123.37Y-137.97
X125.067Y-55.873
X125.067Y-59.267
X125.067Y-133.873
X125.067Y-137.267
X125.77Y-57.57
X125.77Y-135.57
X202.97Y-57.57
X202.97Y-135.57
X203.673Y-55.873
X203.673Y-59.267
X203.673Y-133.873
X203.673Y-137.267
X205.37Y-55.17
X205.37Y-59.97
X205.37Y-133.17
X205.37Y-137.97
X207.067Y-55.873
X207.067Y-59.267
X207.067Y-133.873
X207.067Y-137.267
X207.77Y-57.57
X207.77Y-135.57
T5
X180.37Y-65.79
X180.37Y-68.33
X180.37Y-70.87
X180.37Y-73.41
X180.37Y-75.95
X180.37Y-78.49
X180.37Y-81.03
X180.37Y-83.57
X180.37Y-86.11
X180.37Y-88.65
X187.99Y-65.79
X187.99Y-68.33
X187.99Y-70.87
X187.99Y-73.41
X187.99Y-75.95
X187.99Y-78.49
X187.99Y-81.03
X187.99Y-83.57
X187.99Y-86.11
X187.99Y-88.65
T6
X162.725Y-91.19
X162.725Y-93.73
X162.725Y-96.27
X162.725Y-98.81
X165.265Y-91.19
X165.265Y-93.73
X165.265Y-96.27
X165.265Y-98.81
X187.632Y-129.551
X187.632Y-134.551
T7
X124.5Y-109.58
X124.5Y-114.66
X124.5Y-119.74
X136.161Y-123.815
X136.161Y-131.315
X141.201Y-123.815
X141.201Y-131.315
X146.241Y-123.815
X146.241Y-131.315
X161.501Y-123.815
X161.501Y-131.315
X204.848Y-121.092
X204.848Y-126.092
X204.895Y-66.712
X204.895Y-71.712
X204.895Y-76.712
X204.895Y-81.712
X204.895Y-86.712
X204.895Y-91.712
X204.895Y-96.712
X204.895Y-101.712
T8
X187.37Y-104.995
X187.37Y-119.995
T9
X123.37Y-57.57
X123.37Y-135.57
X205.37Y-57.57
X205.37Y-135.57
T4
G00X122.02Y-90.15
M15
G01X121.42Y-90.15
M16
G05
G00X122.02Y-98.79
M15
G01X121.42Y-98.79
M16
G05
G00X126.45Y-90.15
M15
G01X125.35Y-90.15
M16
G05
G00X126.45Y-98.79
M15
G01X125.35Y-98.79
M16
G05
M30
